1.9Hzhigh3min_grf.mot
version=1
nRows=25
nColumns 19
inDegrees=yes
endheader
time	1_ground_force_vx	1_ground_force_vy	1_ground_force_vz	1_ground_force_px	1_ground_force_py	1_ground_force_pz	1_ground_torque_x	1_ground_torque_y	1_ground_torque_z	2_ground_force_vx	2_ground_force_vy	2_ground_force_vz	2_ground_force_px	2_ground_force_py	2_ground_force_pz	2_ground_torque_x	2_ground_torque_y	2_ground_torque_z
            3.751500	           -0.136780	           -0.361738	            0.273931	           -0.233013	            0.005581	           -0.255695	           -0.575644	            0.186315	           -0.379585	           -0.226562	           -2.208283	           -0.664779	           -0.232311	            0.006130	           -0.833667	           -0.414301	            0.282089	            0.001188
            3.752000	           -0.364905	           -0.724083	            0.685657	           -0.233013	            0.005581	           -0.255695	           -0.480466	            0.029266	           -0.427852	            0.189955	           -0.735080	           -0.237348	           -0.232311	            0.006130	           -0.833667	           -0.376254	            0.159070	            0.076134
            3.752500	           -0.410211	           -0.544809	            0.915823	           -0.233013	            0.005581	           -0.255695	           -0.602932	           -0.063285	           -0.411108	            0.378081	           -0.919054	           -0.097301	           -0.232311	            0.006130	           -0.833667	           -0.507102	           -0.030189	            0.000115
            3.753000	           -0.319125	           -1.625009	            0.589967	           -0.233013	            0.005581	           -0.255695	           -0.494498	           -0.035825	           -0.332119	            0.657831	           -0.549575	           -0.143034	           -0.232311	            0.006130	           -0.833667	           -0.356324	           -0.171303	           -0.038156
            3.753500	            0.230617	           -1.444047	            0.451807	           -0.233013	            0.005581	           -0.255695	           -0.489125	            0.048340	           -0.477504	            0.613783	           -1.287509	            0.182854	           -0.232311	            0.006130	           -0.833667	           -0.243647	           -0.152259	            0.037265
            3.754000	            0.275711	           -1.082327	            0.178103	           -0.233013	            0.005581	           -0.255695	           -0.421144	            0.195936	           -0.399906	            0.518631	           -0.918546	           -0.097361	           -0.232311	            0.006130	           -0.833667	           -0.375945	            0.055629	           -0.075039
            3.754500	            0.366420	           -0.720205	           -0.187426	           -0.233013	            0.005581	           -0.255695	           -0.499303	            0.186223	           -0.283068	            0.378019	           -0.918551	           -0.238085	           -0.232311	            0.006130	           -0.833667	           -0.414157	            0.244211	            0.019903
            3.755000	            0.046984	           -1.263424	            0.361323	           -0.233013	            0.005581	           -0.255695	           -0.485323	            0.159093	           -0.466066	            0.097502	           -1.103045	           -0.426335	           -0.232311	            0.006130	           -0.833667	           -0.395542	            0.291542	            0.020064
            3.755500	           -0.502239	           -0.544237	            0.778483	           -0.233013	            0.005581	           -0.255695	           -0.540681	            0.019710	           -0.377220	            0.192614	           -1.471673	           -0.239977	           -0.232311	            0.006130	           -0.833667	           -0.376066	            0.102489	            0.038231
            3.756000	           -0.547935	           -0.724708	            0.823680	           -0.233013	            0.005581	           -0.255695	           -0.579961	           -0.063669	           -0.341832	            0.374676	            0.002357	           -0.281728	           -0.232311	            0.006130	           -0.833667	           -0.431767	           -0.068200	            0.131899
            3.756500	           -0.547740	           -0.544835	            0.916165	           -0.233013	            0.005581	           -0.255695	           -0.509149	            0.029185	           -0.435607	            0.661195	           -1.470651	           -0.052464	           -0.232311	            0.006130	           -0.833667	           -0.374956	           -0.209316	           -0.000582
            3.757000	           -0.319535	           -0.002421	            0.551067	           -0.233013	            0.005581	           -0.255695	           -0.512421	            0.056684	           -0.350534	            0.560184	            0.554642	           -0.045196	           -0.232311	            0.006130	           -0.833667	           -0.300207	           -0.104930	           -0.037944
            3.757500	            0.046367	           -1.622775	            0.084641	           -0.233013	            0.005581	           -0.255695	           -0.473195	            0.278927	           -0.390377	            0.424143	           -0.733732	           -0.378232	           -0.232311	            0.006130	           -0.833667	           -0.376032	            0.093036	            0.038197
            3.758000	            0.459179	           -0.361622	            0.272452	           -0.233013	            0.005581	           -0.255695	           -0.500637	            0.214576	           -0.410633	            0.333102	           -1.470664	           -0.380821	           -0.232311	            0.006130	           -0.833667	           -0.395278	            0.225171	            0.076378
            3.758500	            0.414087	           -1.984809	            0.449033	           -0.233013	            0.005581	           -0.255695	           -0.544808	            0.121877	           -0.356424	            0.098146	           -1.287026	           -0.473920	           -0.232311	            0.006130	           -0.833667	           -0.301436	            0.244550	            0.038705
            3.759000	           -0.273902	           -0.722885	            0.410294	           -0.233013	            0.005581	           -0.255695	           -0.487536	           -0.007596	           -0.442881	            0.285649	           -1.287186	           -0.239359	           -0.232311	            0.006130	           -0.833667	           -0.526323	            0.092561	            0.019411
            3.759500	           -0.456590	           -0.724100	            0.685885	           -0.233013	            0.005581	           -0.255695	           -0.574220	           -0.091119	           -0.394449	            0.333910	           -1.655983	           -0.052981	           -0.232311	            0.006130	           -0.833667	           -0.413108	           -0.039572	            0.075442
            3.760000	           -0.915395	           -0.543333	            0.550228	           -0.233013	            0.005581	           -0.255695	           -0.512320	            0.038246	           -0.451198	            0.561411	            0.187182	           -0.281151	           -0.232311	            0.006130	           -0.833667	           -0.412707	           -0.152937	            0.056187
            3.760500	            0.001938	           -1.264809	            0.682428	           -0.233013	            0.005581	           -0.255695	           -0.536278	            0.149347	           -0.355147	            0.756183	           -1.838275	           -0.147674	           -0.232311	            0.006130	           -0.833667	           -0.394279	           -0.058208	            0.018816
            3.761000	            0.046852	           -0.542361	            0.364415	           -0.233013	            0.005581	           -0.255695	           -0.485460	            0.158529	           -0.334507	            0.520481	           -1.469820	           -0.427829	           -0.232311	            0.006130	           -0.833667	           -0.319692	            0.093374	            0.000473
            3.761500	            0.092258	           -1.262432	            0.131929	           -0.233013	            0.005581	           -0.255695	           -0.475312	            0.177192	           -0.370068	            0.240690	           -1.838964	           -0.475951	           -0.232311	            0.006130	           -0.833667	           -0.470478	            0.234555	            0.019893
            3.762000	            0.275759	           -0.721993	            0.225505	           -0.233013	            0.005581	           -0.255695	           -0.498306	            0.084841	           -0.362607	            0.143585	           -0.917891	           -0.660339	           -0.232311	            0.006130	           -0.833667	           -0.432823	            0.215650	            0.057510
            3.762500	            0.047245	           -1.444083	            0.452262	           -0.233013	            0.005581	           -0.255695	           -0.526400	            0.001548	           -0.372643	            0.285772	           -1.288191	            0.042209	           -0.232311	            0.006130	           -0.833667	           -0.301027	            0.131118	            0.038300
            3.763000	           -0.272520	           -0.184644	            1.008740	           -0.233013	            0.005581	           -0.255695	           -0.569419	           -0.081860	           -0.367823	            0.473131	           -1.287179	           -0.051727	           -0.232311	            0.006130	           -0.833667	           -0.394279	           -0.058208	            0.018816
            3.763500	           -0.732137	           -0.543101	            0.503917	           -0.233013	            0.005581	           -0.255695	           -0.528779	           -0.026943	           -0.312031	            0.423602	           -0.550588	           -0.096007	           -0.232311	            0.006130	           -0.833667	           -0.375068	           -0.171707	            0.056103
